<svg preserveAspectRatio="none" width="100%" height="100%" overflow="visible" style="display: block;" viewBox="0 0 16 16" fill="none" xmlns="http://www.w3.org/2000/svg">
<g id="Icon">
<path id="Vector" d="M2.66667 9.33334C2.54051 9.33377 2.41682 9.2984 2.30997 9.23133C2.20312 9.16426 2.11749 9.06824 2.06303 8.95445C2.00858 8.84065 1.98753 8.71373 2.00233 8.58845C2.01714 8.46316 2.06719 8.34465 2.14667 8.24667L8.74667 1.44667C8.79617 1.38953 8.86364 1.35091 8.93799 1.33716C9.01234 1.32341 9.08915 1.33535 9.15582 1.37101C9.22249 1.40667 9.27506 1.46394 9.30489 1.53341C9.33472 1.60289 9.34005 1.68044 9.32 1.75334L8.04 5.76667C8.00226 5.86769 7.98958 5.97635 8.00306 6.08334C8.01654 6.19034 8.05577 6.29246 8.11739 6.38096C8.17901 6.46946 8.26118 6.54168 8.35685 6.59145C8.45252 6.64121 8.55883 6.66702 8.66667 6.66667H13.3333C13.4595 6.66624 13.5832 6.70162 13.69 6.76869C13.7969 6.83576 13.8825 6.93177 13.937 7.04557C13.9914 7.15937 14.0125 7.28628 13.9977 7.41157C13.9829 7.53685 13.9328 7.65537 13.8533 7.75334L7.25333 14.5533C7.20383 14.6105 7.13636 14.6491 7.06201 14.6629C6.98766 14.6766 6.91085 14.6647 6.84418 14.629C6.77751 14.5933 6.72494 14.5361 6.69511 14.4666C6.66528 14.3971 6.65995 14.3196 6.68 14.2467L7.96 10.2333C7.99774 10.1323 8.01042 10.0237 7.99694 9.91667C7.98346 9.80968 7.94423 9.70755 7.88261 9.61906C7.82099 9.53056 7.73882 9.45833 7.64315 9.40857C7.54748 9.3588 7.44117 9.33299 7.33333 9.33334H2.66667Z" stroke="var(--stroke-0, #4F39F6)" stroke-width="1.33333" stroke-linecap="round" stroke-linejoin="round"/>
</g>
</svg>
