<svg preserveAspectRatio="none" width="100%" height="100%" overflow="visible" style="display: block;" viewBox="0 0 16 16" fill="none" xmlns="http://www.w3.org/2000/svg">
<g id="Icon">
<path id="Vector" d="M13.3333 8.66666C13.3333 12 11 13.6667 8.22667 14.6333C8.08144 14.6825 7.92369 14.6802 7.78 14.6267C5 13.6667 2.66667 12 2.66667 8.66666V3.99999C2.66667 3.82318 2.7369 3.65361 2.86193 3.52859C2.98695 3.40357 3.15652 3.33333 3.33333 3.33333C4.66667 3.33333 6.33333 2.53333 7.49333 1.51999C7.63457 1.39933 7.81424 1.33303 8 1.33303C8.18576 1.33303 8.36543 1.39933 8.50667 1.51999C9.67333 2.53999 11.3333 3.33333 12.6667 3.33333C12.8435 3.33333 13.013 3.40357 13.1381 3.52859C13.2631 3.65361 13.3333 3.82318 13.3333 3.99999V8.66666Z" stroke="var(--stroke-0, #4F39F6)" stroke-width="1.33333" stroke-linecap="round" stroke-linejoin="round"/>
</g>
</svg>
